<svg xmlns="http://www.w3.org/2000/svg" width="1000" height="1000" viewBox="0 0 1000 1000"><path id="b" d="M499.99998 999.99995C0 999.99995 0 999.99995 0 500S0 0 499.99998 0s500 0 500 500 0 499.99995-500 499.99995z" fill="#1c1c1c"/><path id="l" d="M481.67129 229.42683l-79.42632-79.42632-78.5535 77.68068 80.29914 80.29914zM213.71657 673.69051l195.51094 135.28658-14.83789 32.29422 17.45634 8.72817 68.95251-131.79532-213.84008-137.90503 175.43615-82.04477-17.45633-164.96235-22.69324.87282c0 65.46125-39.27675 87.28166-79.42631 103.86518l-82.91759 34.03985c7.85535 33.16703 12.21943 72.44378 6.98253 108.22927-5.2369 36.6583-16.58351 67.20688-33.16703 93.39138zm304.61215 96.88265l79.42632 79.42632 78.5535-77.68068-80.29913-80.29914zm267.95472-444.26368L590.77251 191.0229l14.83788-32.29422-17.45633-8.72817-68.95252 131.79532 213.84008 137.90503-175.43615 82.04477 17.45634 164.96235 22.69323-.87282c0-65.46125 39.27675-87.28166 79.42632-103.86518l82.91758-34.03985c-7.85535-33.16703-12.21943-72.44378-6.98253-108.22927 5.2369-36.6583 16.58351-67.20688 33.16703-93.39138z" fill="#fff"/><style>@media (prefers-color-scheme:light){#b{fill:#fff}#l{fill:#1c1c1c}}</style></svg>